<?xml version="1.0"?>
<svg xmlns="http://www.w3.org/2000/svg" viewBox="0 0 64 64" width="512" height="512"><g id="outline"><path d="M6,44H58V10H6ZM8,12H56V42H8Z"/><path d="M56,5a3,3,0,0,0-3-3H49a3,3,0,0,0-3,3V6H37V5a3,3,0,0,0-3-3H30a3,3,0,0,0-3,3V6H18V5a3,3,0,0,0-3-3H11A3,3,0,0,0,8,5V6H2V48H19v4h7V62H38V52h7V48H62V6H56ZM48,5a1,1,0,0,1,1-1h4a1,1,0,0,1,1,1V6H48ZM29,5a1,1,0,0,1,1-1h4a1,1,0,0,1,1,1V6H29ZM10,5a1,1,0,0,1,1-1h4a1,1,0,0,1,1,1V6H10ZM36,60H28V52h8Zm7-10H21V48H43Zm17-4H4V8H60Z"/><rect x="18" y="37" width="4" height="2"/><rect x="42" y="37" width="4" height="2"/><path d="M27.787,24.34l-1.716,4.288a1,1,0,0,0,1.444,1.229L32,27.166l4.485,2.691a1,1,0,0,0,1.444-1.229L36.213,24.34,39.6,21.8a1,1,0,0,0-.4-1.78l-4.52-.905L32.9,15.553a1.042,1.042,0,0,0-1.79,0l-1.781,3.562-4.52.905a1,1,0,0,0-.4,1.78ZM30.2,20.98a1,1,0,0,0,.7-.533L32,18.236l1.1,2.211a1,1,0,0,0,.7.533l2.807.562L34.4,23.2a1,1,0,0,0-.329,1.172l.9,2.243-2.454-1.472a1,1,0,0,0-1.03,0l-2.454,1.472.9-2.243A1,1,0,0,0,29.6,23.2l-2.211-1.658Z"/><path d="M23.964,25.733a1,1,0,0,0-.721-.7l-3.635-.909-1.863-2.69a1.02,1.02,0,0,0-.84-.431,1,1,0,0,0-.824.46l-1.708,2.666-3.616.9a1,1,0,0,0-.464,1.677l2.6,2.6-.863,3.45a1,1,0,0,0,1.434,1.129l3.517-1.842,3.559,1.844a1,1,0,0,0,1.43-1.131l-.863-3.45,2.6-2.6A1,1,0,0,0,23.964,25.733Zm-4.671,2.56a1,1,0,0,0-.263.95l.462,1.85-2.053-1.064a1,1,0,0,0-.924,0l-2,1.049.459-1.837a1,1,0,0,0-.263-.95l-1.751-1.751,2.287-.572a1,1,0,0,0,.6-.43L16.955,23.8l1.223,1.766a1,1,0,0,0,.579.4l2.287.572Z"/><path d="M53.243,25.03l-3.635-.909-1.863-2.69a1.038,1.038,0,0,0-.84-.431,1,1,0,0,0-.824.46l-1.708,2.666-3.616.9a1,1,0,0,0-.464,1.677l2.6,2.6-.863,3.45a1,1,0,0,0,1.434,1.129l3.517-1.842,3.559,1.844a1,1,0,0,0,1.43-1.131l-.863-3.45,2.6-2.6a1,1,0,0,0-.464-1.677Zm-3.95,3.263a1,1,0,0,0-.263.95l.462,1.85-2.053-1.064a1,1,0,0,0-.924,0l-2,1.049.459-1.837a1,1,0,0,0-.263-.95l-1.751-1.751,2.287-.572a1,1,0,0,0,.6-.43L46.955,23.8l1.223,1.766a1,1,0,0,0,.579.4l2.287.572Z"/><rect x="24" y="37" width="16" height="2"/><rect x="29" y="33" width="6" height="2"/></g></svg>
