<?xml version="1.0" encoding="iso-8859-1"?>
<!-- Generator: Adobe Illustrator 19.0.0, SVG Export Plug-In . SVG Version: 6.00 Build 0)  -->
<svg version="1.1" id="Capa_1" xmlns="http://www.w3.org/2000/svg" xmlns:xlink="http://www.w3.org/1999/xlink" x="0px" y="0px"
	 viewBox="0 0 512 512" style="enable-background:new 0 0 512 512;" xml:space="preserve">
<g>
	<g>
		<path d="M464.407,428.003c4.15,0,7.515-3.365,7.515-7.515V71.64c0-4.15-3.365-7.515-7.515-7.515h-72.642V7.515
			c0-4.087-3.43-7.515-7.515-7.515H47.593c-4.15,0-7.515,3.365-7.515,7.515v448.877c0,4.15,3.365,7.515,7.515,7.515h72.642v40.579
			c0,4.15,3.365,7.515,7.515,7.515h336.658c4.15,0,7.515-3.365,7.515-7.515v-48.261c0-4.15-3.365-7.515-7.515-7.515
			s-7.515,3.365-7.515,7.515v40.747H135.264V79.155h321.628v341.334C456.892,424.638,460.257,428.003,464.407,428.003z
			 M125.927,64.35c-3.296,0.823-5.692,3.895-5.692,7.29v377.237H55.108V15.029h268.102L125.927,64.35z M376.736,64.125H188.792
			l187.944-46.986V64.125z"/>
	</g>
</g>
<g>
	<g>
		<path d="M408.297,120.235H183.859c-4.15,0-7.515,3.365-7.515,7.515v104.203c0,4.15,3.365,7.515,7.515,7.515h224.438
			c4.15,0,7.515-3.365,7.515-7.515V127.75C415.812,123.599,412.448,120.235,408.297,120.235z M400.783,224.438H191.374v-89.174
			h209.409V224.438z"/>
	</g>
</g>
<g>
	<g>
		<path d="M320.125,264.517H183.859c-4.15,0-7.515,3.365-7.515,7.515v176.344c0,4.15,3.365,7.515,7.515,7.515h136.266
			c4.15,0,7.515-3.365,7.515-7.515V272.031C327.64,267.881,324.275,264.517,320.125,264.517z M312.611,440.861H191.374V279.546
			h121.237V440.861z"/>
	</g>
</g>
<g>
	<g>
		<path d="M408.297,288.564h-56.11c-4.15,0-7.515,3.365-7.515,7.515c0,4.15,3.365,7.515,7.515,7.515h56.11
			c4.15,0,7.515-3.365,7.515-7.515C415.812,291.928,412.448,288.564,408.297,288.564z"/>
	</g>
</g>
<g>
	<g>
		<path d="M408.297,320.626h-56.11c-4.15,0-7.515,3.365-7.515,7.515c0,4.15,3.365,7.515,7.515,7.515h56.11
			c4.15,0,7.515-3.365,7.515-7.515C415.812,323.991,412.448,320.626,408.297,320.626z"/>
	</g>
</g>
<g>
	<g>
		<path d="M408.297,352.689h-56.11c-4.15,0-7.515,3.365-7.515,7.515c0,4.15,3.365,7.515,7.515,7.515h56.11
			c4.15,0,7.515-3.365,7.515-7.515C415.812,356.053,412.448,352.689,408.297,352.689z"/>
	</g>
</g>
<g>
	<g>
		<path d="M408.297,384.751h-56.11c-4.15,0-7.515,3.365-7.515,7.515c0,4.15,3.365,7.515,7.515,7.515h56.11
			c4.15,0,7.515-3.365,7.515-7.515C415.812,388.116,412.448,384.751,408.297,384.751z"/>
	</g>
</g>
<g>
	<g>
		<path d="M408.297,416.814h-56.11c-4.15,0-7.515,3.365-7.515,7.515c0,4.15,3.365,7.515,7.515,7.515h56.11
			c4.15,0,7.515-3.365,7.515-7.515C415.812,420.179,412.448,416.814,408.297,416.814z"/>
	</g>
</g>
<g>
</g>
<g>
</g>
<g>
</g>
<g>
</g>
<g>
</g>
<g>
</g>
<g>
</g>
<g>
</g>
<g>
</g>
<g>
</g>
<g>
</g>
<g>
</g>
<g>
</g>
<g>
</g>
<g>
</g>
</svg>
