<svg height="496pt" viewBox="-15 0 495 496" width="496pt" xmlns="http://www.w3.org/2000/svg"><path d="m465.828125 222.550781-12.664063-132.976562c-2.753906-28.933594-22.464843-53.230469-50.199218-61.894531l-87.417969-27.320313-162.382813-.359375-89.800781 27.679688c-27.734375 8.664062-47.4375 32.96875-50.199219 61.894531l-12.664062 132.976562 88.664062 16.128907v257.320312h288v-257.320312zm-88.664063-.136719v-15.734374l69.863282-12.703126 1.472656 15.472657zm-144-158.414062c28.152344 0 51.457032-20.902344 55.359376-48h16.167968c-4 35.945312-34.535156 64-71.527344 64-36.992187 0-67.527343-28.054688-71.527343-64h16.167969c3.902343 27.097656 27.207031 48 55.359374 48zm-39.191406-48h78.382813c-3.71875 18.230469-19.878907 32-39.191407 32s-35.472656-13.769531-39.191406-32zm-125.832031 26.953125 77.734375-24.296875c5.289062 43.511719 42.378906 77.34375 87.289062 77.34375 44.910157 0 82-33.832031 87.289063-77.34375l77.734375 24.296875c21.578125 6.734375 36.90625 25.640625 39.039062 48.144531l8.28125 86.894532-68.34375 12.421874v-94.414062h-16v304h-256v-304h-16v94.414062l-68.34375-12.421874 8.28125-86.894532c2.132813-22.503906 17.460938-41.410156 39.039063-48.144531zm-50.3125 166.496094 1.472656-15.472657 69.863281 12.703126v15.734374zm87.335937 270.550781v-32h208v-16h-208v-16h256v16h-32v16h32v32zm0 0"/><path d="m225.164062 152h16v16h-16zm0 0"/><path d="m225.164062 264h16v16h-16zm0 0"/><path d="m225.164062 248h16v-24h24v-16h-24v-24h-16v24h-24v16h24zm0 0"/><path d="m281.164062 208h16v16h-16zm0 0"/><path d="m169.164062 208h16v16h-16zm0 0"/></svg>